<svg xmlns="http://www.w3.org/2000/svg" viewBox="0 0 32 32">
    <g>
        <path
            d="M18,13H14a1,1,0,0,0-1,1v4a1,1,0,0,0,1,1h4a1,1,0,0,0,1-1V14A1,1,0,0,0,18,13Zm-1,4H15V15h2Z"
            fill="#cf0e0e" />
        <path
            d="M31,6a1,1,0,0,0,1-1V1a1,1,0,0,0-1-1H27a1,1,0,0,0-1,1V2H19V1a1,1,0,0,0-1-1H14a1,1,0,0,0-1,1V2H6V1A1,1,0,0,0,5,0H1A1,1,0,0,0,0,1V5A1,1,0,0,0,1,6H2v7H1a1,1,0,0,0-1,1v4a1,1,0,0,0,1,1H2v7H1a1,1,0,0,0-1,1v4a1,1,0,0,0,1,1H5a1,1,0,0,0,1-1V30h7v1a1,1,0,0,0,1,1h4a1,1,0,0,0,1-1V30h7v1a1,1,0,0,0,1,1h4a1,1,0,0,0,1-1V27a1,1,0,0,0-1-1H30V19h1a1,1,0,0,0,1-1V14a1,1,0,0,0-1-1H30V6ZM15,2h2V4H15ZM2,2H4V4H2ZM2,15H4v2H2ZM4,30H2V28H4Zm13,0H15V28h2Zm9-3v1H19V27a1,1,0,0,0-1-1H14a1,1,0,0,0-1,1v1H6V27a1,1,0,0,0-1-1H4V19H5a1,1,0,0,0,1-1V14a1,1,0,0,0-1-1H4V6H5A1,1,0,0,0,6,5V4h7V5a1,1,0,0,0,1,1h4a1,1,0,0,0,1-1V4h7V5a1,1,0,0,0,1,1h1v7H27a1,1,0,0,0-1,1v4a1,1,0,0,0,1,1h1v7H27A1,1,0,0,0,26,27Zm4,3H28V28h2Zm0-13H28V15h2ZM28,4V2h2V4Z"
            fill="#cf0e0e" />
    </g>
</svg>